<?xml version="1.0" encoding="UTF-8"?>
<svg width="25px" height="22px" viewBox="0 0 25 22" version="1.1" xmlns="http://www.w3.org/2000/svg" xmlns:xlink="http://www.w3.org/1999/xlink">
    <title>Warning icon</title>
    <defs>
        <polygon id="path-1" points="0.000181818182 0.255454545 24.6436364 0.255454545 24.6436364 21.8181818 0.000181818182 21.8181818"></polygon>
    </defs>
    <g id="PUOD---PK-Sept-2021" stroke="none" stroke-width="1" fill="none" fill-rule="evenodd">
        <g id="PUOD---Modal" transform="translate(-406.000000, -2676.000000)">
            <g id="Modal" transform="translate(0.000000, -9.000000)">
                <g id="Warning-icon" transform="translate(406.000000, 2685.000000)">
                    <g id="Group-3" transform="translate(0.000000, 0.199182)">
                        <mask id="mask-2" fill="white">
                            <use xlink:href="#path-1"></use>
                        </mask>
                        <g id="Clip-2"></g>
                        <path d="M2.58790909,19.9231818 L22.0560909,19.9231818 L12.3210909,3.06454545 L2.58790909,19.9231818 Z M23.6965455,21.8181818 L0.947454545,21.8181818 C0.608818182,21.8181818 0.295636364,21.6377273 0.127,21.3445455 C-0.0420909091,21.0504545 -0.0420909091,20.6904545 0.127,20.3972727 L11.5006364,0.695909091 C11.8392727,0.108636364 12.8038182,0.108636364 13.142,0.695909091 L24.517,20.3972727 C24.6860909,20.6904545 24.6860909,21.0504545 24.517,21.3445455 C24.3479091,21.6377273 24.0347273,21.8181818 23.6965455,21.8181818 L23.6965455,21.8181818 Z" id="Fill-1" fill="#333366" mask="url(#mask-2)"></path>
                    </g>
                    <path d="M12.3561818,15.6403636 C11.5416364,15.6403636 10.8807273,16.3012727 10.8807273,17.1158182 C10.8807273,17.9280909 11.5416364,18.5944545 12.3561818,18.5944545 C13.1743636,18.5944545 13.8348182,17.9280909 13.8348182,17.1158182 C13.8348182,16.3012727 13.1743636,15.6403636 12.3561818,15.6403636" id="Fill-4" fill="#333466"></path>
                    <path d="M13.3633636,14.1058182 C13.3133636,14.6053636 13.0788182,14.8549091 12.6588182,14.8549091 L12.0729091,14.8549091 C11.8829091,14.8549091 11.7306364,14.804 11.6165455,14.7017273 C11.4788182,14.5776364 11.3960909,14.3794545 11.3683636,14.1058182 L10.9033636,9.27490909 C10.8729091,8.96490909 10.8579091,8.76490909 10.8579091,8.67445455 C10.8579091,7.99490909 11.3588182,7.65536364 12.3583636,7.65536364 C13.3583636,7.65536364 13.8588182,7.99490909 13.8588182,8.67445455 C13.8588182,8.86490909 13.8474545,9.06490909 13.8279091,9.27490909 L13.3633636,14.1058182 Z" id="Fill-6" fill="#333466"></path>
                </g>
            </g>
        </g>
    </g>
</svg>