<?xml version="1.0" encoding="utf-8"?>
<!-- Generator: Adobe Illustrator 19.2.1, SVG Export Plug-In . SVG Version: 6.00 Build 0)  -->
<svg version="1.1" id="Layer_1" xmlns="http://www.w3.org/2000/svg" xmlns:xlink="http://www.w3.org/1999/xlink" x="0px" y="0px"
	 viewBox="0 0 201.8 9" style="enable-background:new 0 0 201.8 9;" xml:space="preserve">
<style type="text/css">
	.st0{fill:#FFFFFF;}
	.st1{fill:#D8D9D8;}
	.st2{fill:#343466;}
</style>
<g>
	<g>
		<g>
			<path class="st0" d="M37,1l-1.5,7H1.2l1.5-7H37 M38.2,0H1.9L0,9h36.3L38.2,0L38.2,0z"/>
		</g>
		<g>
			<path class="st0" d="M77.9,1l-1.5,7H42.1l1.5-7H77.9 M79.1,0H42.8l-1.9,9h36.3L79.1,0L79.1,0z"/>
		</g>
		<path class="st0" d="M118.8,1l-1.5,7H83l1.5-7H118.8 M120,0H83.7l-1.9,9h36.3L120,0L120,0z"/>
		<path class="st0" d="M159.7,1l-1.5,7h-34.3l1.5-7H159.7 M160.9,0h-36.3l-1.9,9H159L160.9,0L160.9,0z"/>
		<path class="st0" d="M200.6,1l-1.5,7h-34.3l1.5-7H200.6 M201.8,0h-36.3l-1.9,9h36.3L201.8,0L201.8,0z"/>
	</g>
</g>
</svg>
